<svg width="40" height="41" viewBox="0 0 40 41" fill="none" xmlns="http://www.w3.org/2000/svg">
<circle cx="20" cy="20.7695" r="19.5415" stroke="url(#paint0_linear_6418_22398)" stroke-width="0.917079"/>
<path d="M20.0013 27.8522C21.5094 27.8522 22.9556 27.7032 24.2958 27.43C25.9699 27.0888 26.807 26.9181 27.5708 25.9361C28.3346 24.954 28.3346 23.8266 28.3346 21.5718V19.9659C28.3346 17.7112 28.3346 16.5838 27.5708 15.6017C26.807 14.6196 25.9699 14.449 24.2958 14.1077C22.9556 13.8345 21.5094 13.6855 20.0013 13.6855C18.4932 13.6855 17.047 13.8345 15.7068 14.1077C14.0327 14.449 13.1956 14.6196 12.4318 15.6017C11.668 16.5838 11.668 17.7112 11.668 19.9659V21.5718C11.668 23.8266 11.668 24.954 12.4318 25.9361C13.1956 26.9181 14.0327 27.0888 15.7068 27.43C17.047 27.7032 18.4932 27.8522 20.0013 27.8522Z" stroke="url(#paint1_linear_6418_22398)"/>
<path d="M23.3018 21.029C23.1781 21.5338 22.5201 21.8964 21.204 22.6216C19.7727 23.4104 19.057 23.8047 18.4773 23.6528C18.281 23.6013 18.1002 23.5108 17.9483 23.3881C17.5 23.0256 17.5 22.2732 17.5 20.7682C17.5 19.2633 17.5 18.5108 17.9483 18.1484C18.1002 18.0256 18.281 17.9351 18.4773 17.8837C19.057 17.7317 19.7727 18.1261 21.204 18.9148C22.5201 19.64 23.1781 20.0026 23.3018 20.5075C23.3439 20.6793 23.3439 20.8572 23.3018 21.029Z" stroke="url(#paint2_linear_6418_22398)" stroke-linejoin="round"/>
<defs>
<linearGradient id="paint0_linear_6418_22398" x1="0" y1="20.7695" x2="40" y2="20.7695" gradientUnits="userSpaceOnUse">
<stop stop-color="#EA2618"/>
<stop offset="1" stop-color="#1CA1F0"/>
</linearGradient>
<linearGradient id="paint1_linear_6418_22398" x1="11.668" y1="20.7689" x2="28.3346" y2="20.7689" gradientUnits="userSpaceOnUse">
<stop stop-color="#EA2618"/>
<stop offset="1" stop-color="#1CA1F0"/>
</linearGradient>
<linearGradient id="paint2_linear_6418_22398" x1="17.5" y1="20.7682" x2="23.3333" y2="20.7682" gradientUnits="userSpaceOnUse">
<stop stop-color="#EA2618"/>
<stop offset="1" stop-color="#1CA1F0"/>
</linearGradient>
</defs>
</svg>
