<svg width="296" height="60" viewBox="0 0 296 60" fill="none" xmlns="http://www.w3.org/2000/svg">
<g clip-path="url(#clip0_6502_231)">
<path d="M89.4049 23.8772H93.3884L87.9047 41.5168H84.1996L80.4946 29.4721L76.7896 41.5168H72.7833L67.7031 23.8772H71.6923L75.0734 36.0539L78.7444 23.8772H82.3585L85.9897 36.0482L89.4049 23.8772Z" fill="#0D0D0D"/>
<path d="M103.731 41.9816C101.168 41.9816 98.9914 41.0864 97.1957 39.3018C95.4 37.5172 94.5078 35.3137 94.5078 32.7027C94.5078 30.0918 95.4057 27.894 97.1957 26.1037C98.9914 24.319 101.168 23.4239 103.731 23.4239C106.316 23.4239 108.498 24.319 110.283 26.1037C112.067 27.894 112.953 30.0918 112.953 32.7027C112.953 35.3137 112.061 37.5115 110.283 39.3018C108.498 41.0864 106.316 41.9816 103.731 41.9816ZM99.8551 36.6851C100.901 37.741 102.196 38.2747 103.736 38.2747C105.276 38.2747 106.566 37.7467 107.618 36.6851C108.669 35.6236 109.192 34.298 109.192 32.697C109.192 31.096 108.669 29.7705 107.618 28.7089C106.572 27.653 105.276 27.1193 103.736 27.1193C102.196 27.1193 100.906 27.6473 99.8551 28.7089C98.8095 29.7647 98.281 31.096 98.281 32.697C98.281 34.298 98.8038 35.6293 99.8551 36.6851Z" fill="#0D0D0D"/>
<path d="M120.154 26.8438C121.109 24.6575 122.904 23.5615 125.535 23.5615V27.6874C124.092 27.5956 122.831 27.9399 121.762 28.726C120.688 29.5122 120.154 30.8148 120.154 32.6223V41.5168H116.381V23.8771H120.154V26.8438Z" fill="#0D0D0D"/>
<path d="M128.33 41.5226V15.7632H132.103V41.5226H128.33Z" fill="#0D0D0D"/>
<path d="M150.305 16.8191H154.078V41.5169H150.305V38.9748C148.884 40.9717 146.844 41.9759 144.19 41.9759C141.792 41.9759 139.741 41.075 138.042 39.2789C136.343 37.4771 135.49 35.285 135.49 32.6971C135.49 30.0861 136.343 27.8883 138.042 26.098C139.741 24.3134 141.792 23.4182 144.19 23.4182C146.844 23.4182 148.884 24.4052 150.305 26.3849V16.8191ZM140.838 36.7368C141.883 37.8099 143.201 38.3436 144.787 38.3436C146.372 38.3436 147.685 37.8099 148.736 36.7368C149.782 35.6695 150.31 34.321 150.31 32.6971C150.31 31.0731 149.788 29.7303 148.736 28.6573C147.691 27.5842 146.372 27.0505 144.787 27.0505C143.201 27.0505 141.889 27.5842 140.838 28.6573C139.792 29.7303 139.263 31.0731 139.263 32.6971C139.263 34.321 139.786 35.6695 140.838 36.7368Z" fill="#0D0D0D"/>
<path d="M172.318 16.8191H176.092V41.5169H172.318V38.9748C170.898 40.9717 168.858 41.9759 166.204 41.9759C163.806 41.9759 161.754 41.075 160.055 39.2789C158.356 37.4771 157.504 35.285 157.504 32.6971C157.504 30.0861 158.356 27.8883 160.055 26.098C161.754 24.3134 163.806 23.4182 166.204 23.4182C168.858 23.4182 170.898 24.4052 172.318 26.3849V16.8191ZM162.851 36.7368C163.897 37.8099 165.215 38.3436 166.801 38.3436C168.386 38.3436 169.699 37.8099 170.75 36.7368C171.796 35.6695 172.324 34.321 172.324 32.6971C172.324 31.0731 171.801 29.7303 170.75 28.6573C169.704 27.5842 168.386 27.0505 166.801 27.0505C165.215 27.0505 163.902 27.5842 162.851 28.6573C161.806 29.7303 161.277 31.0731 161.277 32.6971C161.277 34.321 161.8 35.6695 162.851 36.7368Z" fill="#0D0D0D"/>
<path d="M184.077 20.5088C183.6 20.9908 183.038 21.2318 182.384 21.2318C181.731 21.2318 181.168 20.9908 180.691 20.5088C180.213 20.0268 179.975 19.4587 179.975 18.7988C179.975 18.1389 180.208 17.5708 180.674 17.0888C181.14 16.6067 181.708 16.3657 182.384 16.3657C183.06 16.3657 183.629 16.6067 184.094 17.0888C184.56 17.5708 184.793 18.1446 184.793 18.7988C184.793 19.4587 184.555 20.0268 184.077 20.5088ZM180.497 41.5226V23.8772H184.271V41.5168H180.497V41.5226Z" fill="#0D0D0D"/>
<path d="M202.539 23.8772H206.244V40.7077C206.244 43.3875 205.369 45.4475 203.624 46.8821C201.88 48.3167 199.76 49.034 197.265 49.034C193.237 49.034 190.475 47.6109 188.986 44.7647L192.236 42.8596C193.146 44.6729 194.845 45.5738 197.339 45.5738C198.97 45.5738 200.243 45.1434 201.164 44.2884C202.084 43.4277 202.545 42.2341 202.545 40.7077V38.5558C201.124 40.6044 199.095 41.6258 196.464 41.6258C193.992 41.6258 191.912 40.7364 190.208 38.9632C188.509 37.1901 187.656 35.044 187.656 32.5248C187.656 30.0057 188.509 27.8596 190.208 26.0864C191.907 24.3133 193.992 23.4238 196.464 23.4238C199.095 23.4238 201.124 24.4453 202.545 26.4938V23.8772H202.539ZM193.021 36.4728C194.078 37.5287 195.402 38.0623 196.987 38.0623C198.572 38.0623 199.891 37.5344 200.953 36.4728C202.01 35.4169 202.545 34.0971 202.545 32.5191C202.545 30.941 202.016 29.627 200.953 28.5654C199.891 27.5095 198.572 26.9759 196.987 26.9759C195.402 26.9759 194.083 27.5038 193.021 28.5654C191.958 29.6212 191.429 30.941 191.429 32.5191C191.429 34.0971 191.958 35.4169 193.021 36.4728Z" fill="#0D0D0D"/>
<path d="M214.228 20.5088C213.75 20.9908 213.188 21.2318 212.534 21.2318C211.881 21.2318 211.318 20.9908 210.841 20.5088C210.364 20.0268 210.125 19.4587 210.125 18.7988C210.125 18.1389 210.358 17.5708 210.824 17.0888C211.29 16.6067 211.858 16.3657 212.534 16.3657C213.211 16.3657 213.779 16.6067 214.245 17.0888C214.711 17.5708 214.944 18.1446 214.944 18.7988C214.944 19.4587 214.705 20.0268 214.228 20.5088ZM210.648 41.5226V23.8772H214.421V41.5168H210.648V41.5226Z" fill="#0D0D0D"/>
<path d="M228.536 27.5498H224.206V36.0195C224.206 36.7483 224.371 37.2705 224.695 37.5918C225.019 37.9074 225.502 38.0853 226.144 38.1198C226.786 38.1542 227.582 38.1485 228.536 38.1026V41.5226C225.65 41.8726 223.576 41.6201 222.32 40.7651C221.064 39.9044 220.433 38.3263 220.433 36.0195V27.5498H217.217V23.8772H220.433V20.067L224.206 18.9365V23.8772H228.536V27.5498Z" fill="#0D0D0D"/>
<path d="M245.096 23.8772H248.869V41.5168H245.096V38.9747C243.675 40.9716 241.635 41.9759 238.981 41.9759C236.583 41.9759 234.532 41.0749 232.833 39.2788C231.134 37.477 230.281 35.285 230.281 32.697C230.281 30.086 231.134 27.8883 232.833 26.0979C234.532 24.3133 236.583 23.4181 238.981 23.4181C241.635 23.4181 243.675 24.4051 245.096 26.3848V23.8772ZM235.629 36.7368C236.674 37.8098 237.993 38.3435 239.578 38.3435C241.163 38.3435 242.476 37.8098 243.527 36.7368C244.573 35.6694 245.101 34.3209 245.101 32.697C245.101 31.073 244.579 29.7303 243.527 28.6572C242.482 27.5841 241.163 27.0505 239.578 27.0505C237.993 27.0505 236.68 27.5841 235.629 28.6572C234.583 29.7303 234.054 31.073 234.054 32.697C234.054 34.3209 234.583 35.6694 235.629 36.7368Z" fill="#0D0D0D"/>
<path d="M253.273 41.5226V15.7632H257.047V41.5226H253.273Z" fill="#0D0D0D"/>
<path d="M265.537 41.1668C265.025 41.6833 264.406 41.9415 263.684 41.9415C262.962 41.9415 262.343 41.6833 261.832 41.1668C261.32 40.6504 261.064 40.0249 261.064 39.2961C261.064 38.5674 261.314 37.9419 261.815 37.4254C262.315 36.909 262.94 36.6508 263.684 36.6508C264.406 36.6508 265.025 36.909 265.537 37.4254C266.048 37.9419 266.304 38.5674 266.304 39.2961C266.309 40.0249 266.048 40.6504 265.537 41.1668Z" fill="#0D0D0D"/>
<path d="M282.766 23.8772H286.539V41.5168H282.766V38.9747C281.345 40.9717 279.305 41.9759 276.651 41.9759C274.253 41.9759 272.202 41.075 270.503 39.2789C268.804 37.477 267.951 35.285 267.951 32.697C267.951 30.0861 268.804 27.8883 270.503 26.0979C272.202 24.3133 274.253 23.4181 276.651 23.4181C279.305 23.4181 281.345 24.4051 282.766 26.3848V23.8772ZM273.293 36.7368C274.338 37.8099 275.657 38.3435 277.242 38.3435C278.828 38.3435 280.14 37.8099 281.192 36.7368C282.237 35.6695 282.766 34.321 282.766 32.697C282.766 31.0731 282.243 29.7303 281.192 28.6572C280.146 27.5841 278.828 27.0505 277.242 27.0505C275.657 27.0505 274.344 27.5841 273.293 28.6572C272.247 29.7303 271.719 31.0731 271.719 32.697C271.724 34.321 272.247 35.6695 273.293 36.7368Z" fill="#0D0D0D"/>
<path d="M294.523 20.5088C294.045 20.9908 293.483 21.2318 292.829 21.2318C292.176 21.2318 291.613 20.9908 291.136 20.5088C290.659 20.0268 290.42 19.4587 290.42 18.7988C290.42 18.1389 290.653 17.5708 291.119 17.0888C291.585 16.6067 292.153 16.3657 292.829 16.3657C293.506 16.3657 294.074 16.6067 294.54 17.0888C295.006 17.5708 295.239 18.1446 295.239 18.7988C295.239 19.4587 295 20.0268 294.523 20.5088ZM290.937 41.5226V23.8772H294.71V41.5168H290.937V41.5226Z" fill="#0D0D0D"/>
<path d="M2.1425 10.2085C9.63213 10.2142 12.8257 10.1052 20.3097 10.22C27.3049 10.329 31.5271 10.8512 34.3456 12.8653L37.2551 7.09257C31.8226 3.99387 25.907 3.62662 19.7642 3.52907C13.5929 3.43152 7.89895 3.5635 1.96066 3.5635C1.33557 3.5635 0.716173 3.5635 0.0683594 3.5635C0.0683594 5.90474 0.0683594 8.01071 0.0683594 10.2085C0.869602 10.2085 1.50605 10.2085 2.1425 10.2085Z" fill="#0D0D0D"/>
<path d="M2.1425 10.2085C9.63213 10.2142 12.8257 10.1052 20.3097 10.22C27.3049 10.329 31.5271 10.8512 34.3456 12.8653L37.2551 7.09257C31.8226 3.99387 25.907 3.62662 19.7642 3.52907C13.5929 3.43152 7.89895 3.5635 1.96066 3.5635C1.33557 3.5635 0.716173 3.5635 0.0683594 3.5635C0.0683594 5.90474 0.0683594 8.01071 0.0683594 10.2085C0.869602 10.2085 1.50605 10.2085 2.1425 10.2085Z" fill="url(#paint0_linear_6502_231)"/>
<path d="M0 57.9261C0 55.734 0 53.7084 0 51.4934C0.664861 51.4934 1.23312 51.4934 1.80138 51.4934C9.82517 51.4934 17.8433 51.5164 25.8671 51.4819C36.1184 51.436 44.7105 44.1024 46.2164 33.8882C46.8699 29.441 46.1936 25.0626 43.9092 21.0802C43.4319 20.2482 43.3694 19.5711 43.8581 18.7046C44.7957 17.029 45.6083 15.2845 46.5857 13.3335C49.2111 16.5584 51.0636 19.9211 51.9785 23.7314C53.9844 32.0978 52.8252 39.9536 47.6995 46.9486C42.6307 53.8691 35.7491 57.7424 27.2082 57.9835C18.4456 58.2302 9.67174 58.0466 0.897847 58.0466C0.642131 58.0466 0.380732 57.9777 0 57.9261Z" fill="#0D0D0D"/>
<path d="M0 57.9261C0 55.734 0 53.7084 0 51.4934C0.664861 51.4934 1.23312 51.4934 1.80138 51.4934C9.82517 51.4934 17.8433 51.5164 25.8671 51.4819C36.1184 51.436 44.7105 44.1024 46.2164 33.8882C46.8699 29.441 46.1936 25.0626 43.9092 21.0802C43.4319 20.2482 43.3694 19.5711 43.8581 18.7046C44.7957 17.029 45.6083 15.2845 46.5857 13.3335C49.2111 16.5584 51.0636 19.9211 51.9785 23.7314C53.9844 32.0978 52.8252 39.9536 47.6995 46.9486C42.6307 53.8691 35.7491 57.7424 27.2082 57.9835C18.4456 58.2302 9.67174 58.0466 0.897847 58.0466C0.642131 58.0466 0.380732 57.9777 0 57.9261Z" fill="url(#paint1_linear_6502_231)"/>
<path d="M44.0288 0C42.5229 2.95524 41.1136 5.70964 39.6191 8.64193C39.602 8.63045 39.5907 8.61898 39.5736 8.61324L36.238 15.2869C36.1868 15.5222 36.0845 15.7862 35.9197 16.096C33.9536 19.803 32.1749 23.6132 30.2883 27.3661C29.0211 29.8852 27.7027 32.3699 26.4071 34.8718C26.2878 34.8374 26.1684 34.803 26.0491 34.7628C26.0491 27.5096 26.0491 21.5991 26.0491 14.1622C23.8784 14.1622 21.861 14.2311 19.8494 14.1335C18.7584 14.0819 18.2526 14.5008 17.798 15.4591C14.5362 22.2533 11.2233 27.6645 7.91032 34.43C7.56937 35.1243 7.16022 35.7842 6.77949 36.4556C6.6772 36.4212 6.57491 36.3925 6.46695 36.3581C6.46695 28.6687 6.46695 21.9147 6.46695 14.1565C4.22233 14.1565 2.13114 14.1565 0.00585938 14.1565C0.00585938 25.9832 0.00585938 36.7425 0.00585938 48.6266C2.23343 48.6266 4.36439 48.5578 6.48968 48.6553C7.68302 48.707 8.29105 48.2766 8.81385 47.1978C11.4506 41.7177 14.1668 36.272 16.8661 30.8206C17.6559 29.2253 18.4742 27.6358 19.2755 26.0463C19.3891 26.075 19.5085 26.1037 19.6221 26.1324C19.6221 33.5922 19.6221 41.052 19.6221 48.6324C21.6224 48.6324 23.4351 48.5578 25.2422 48.6611C26.4298 48.7242 27.0379 48.2995 27.5777 47.2265C33.0387 36.3007 38.5564 25.4036 44.0515 14.5008C45.9665 10.7077 47.8588 6.90321 49.842 2.95524C47.8588 1.95103 45.9836 0.99847 44.0288 0Z" fill="#0D0D0D"/>
<path d="M44.0288 0C42.5229 2.95524 41.1136 5.70964 39.6191 8.64193C39.602 8.63045 39.5907 8.61898 39.5736 8.61324L36.238 15.2869C36.1868 15.5222 36.0845 15.7862 35.9197 16.096C33.9536 19.803 32.1749 23.6132 30.2883 27.3661C29.0211 29.8852 27.7027 32.3699 26.4071 34.8718C26.2878 34.8374 26.1684 34.803 26.0491 34.7628C26.0491 27.5096 26.0491 21.5991 26.0491 14.1622C23.8784 14.1622 21.861 14.2311 19.8494 14.1335C18.7584 14.0819 18.2526 14.5008 17.798 15.4591C14.5362 22.2533 11.2233 27.6645 7.91032 34.43C7.56937 35.1243 7.16022 35.7842 6.77949 36.4556C6.6772 36.4212 6.57491 36.3925 6.46695 36.3581C6.46695 28.6687 6.46695 21.9147 6.46695 14.1565C4.22233 14.1565 2.13114 14.1565 0.00585938 14.1565C0.00585938 25.9832 0.00585938 36.7425 0.00585938 48.6266C2.23343 48.6266 4.36439 48.5578 6.48968 48.6553C7.68302 48.707 8.29105 48.2766 8.81385 47.1978C11.4506 41.7177 14.1668 36.272 16.8661 30.8206C17.6559 29.2253 18.4742 27.6358 19.2755 26.0463C19.3891 26.075 19.5085 26.1037 19.6221 26.1324C19.6221 33.5922 19.6221 41.052 19.6221 48.6324C21.6224 48.6324 23.4351 48.5578 25.2422 48.6611C26.4298 48.7242 27.0379 48.2995 27.5777 47.2265C33.0387 36.3007 38.5564 25.4036 44.0515 14.5008C45.9665 10.7077 47.8588 6.90321 49.842 2.95524C47.8588 1.95103 45.9836 0.99847 44.0288 0Z" fill="url(#paint2_linear_6502_231)"/>
</g>
<defs>
<linearGradient id="paint0_linear_6502_231" x1="29.3425" y1="17.9747" x2="14.1287" y2="-5.58601" gradientUnits="userSpaceOnUse">
<stop stop-color="#22A6F1"/>
<stop offset="1" stop-color="#F32E0E"/>
</linearGradient>
<linearGradient id="paint1_linear_6502_231" x1="41.6501" y1="82.5241" x2="-19.0079" y2="54.5511" gradientUnits="userSpaceOnUse">
<stop stop-color="#22A6F1"/>
<stop offset="1" stop-color="#F32E0E"/>
</linearGradient>
<linearGradient id="paint2_linear_6502_231" x1="39.2379" y1="75.1988" x2="-20.5059" y2="51.3204" gradientUnits="userSpaceOnUse">
<stop stop-color="#22A6F1"/>
<stop offset="1" stop-color="#F32E0E"/>
</linearGradient>
<clipPath id="clip0_6502_231">
<rect width="295.238" height="60" fill="white"/>
</clipPath>
</defs>
</svg>
